<?xml version="1.0" encoding="utf-8"?>
<!-- Generator: Adobe Illustrator 17.0.1, SVG Export Plug-In . SVG Version: 6.00 Build 0)  -->
<!DOCTYPE svg PUBLIC "-//W3C//DTD SVG 1.1//EN" "http://www.w3.org/Graphics/SVG/1.1/DTD/svg11.dtd">
<svg version="1.1" id="Capa_1" xmlns="http://www.w3.org/2000/svg" xmlns:xlink="http://www.w3.org/1999/xlink" x="0px" y="0px"
	 width="863.109px" height="69px" viewBox="44.391 215.5 863.109 69" enable-background="new 44.391 215.5 863.109 69"
	 xml:space="preserve">
<g id="logo_2_">
	<path fill="#690000" d="M83.239,265.577L78.45,278.85H44.397l0.011-0.823h1.038c2.875,0,5.208-2.302,5.263-5.166v-45.529
		c-0.056-2.863-2.389-5.166-5.263-5.166h-1.038l-0.017-0.823h17.973l-0.011,0.823h-1.038c-2.875,0-5.208,2.302-5.263,5.166v49.001
		h11.783c8.707,0,12.045-4.502,14.585-10.756L83.239,265.577L83.239,265.577z"/>
	<path fill="#690000" d="M132.938,278.85H98.879l0.017-0.823h1.038c2.875,0,5.208-2.302,5.263-5.166V226.86
		c-0.285-2.643-2.517-4.705-5.236-4.705h-1.038l-0.017-0.818h24.012c3.539-0.033,8.266-0.851,9.79-1.493v2.406v1.37v6.597
		l-0.826-0.011v-1.465c0-2.607-2.037-4.733-4.605-4.889h-16.745v25.399h13.881c2.199-0.042,3.974-1.836,3.974-4.047v-1.211
		l0.804-0.011v13.002l-0.804-0.008v-1.211c0-2.182-1.725-3.96-3.89-4.047h-13.965v24.615h11.783c8.702,0,12.045-4.502,14.585-10.756
		h0.82L132.938,278.85z"/>
	<path fill="#690000" d="M206.152,278.027v0.82H186.12v-0.82h1.033c2.227,0,4.22-2.688,2.908-5.007l-12.665-19.979l-12.631,19.926
		c-1.395,2.319,0.681,5.06,2.908,5.06h1.033v0.809h-18.631v-0.809h1.139c3.449,0,6.614-2.308,8.361-4.842l15.735-23.443
		l-14.423-22.751c-1.747-2.537-4.834-4.834-8.283-4.834h-1.15v-0.818h19.932v0.818h-1.033c-2.21,0-4.197,2.696-2.93,5.01
		l11.32,17.78l11.202-17.688c1.373-2.33-0.558-5.099-2.802-5.099h-1.033v-0.823h18.525v0.823h-1.15
		c-3.449,0-6.536,2.294-8.283,4.828l-14.395,21.199l15.958,25.067c1.753,2.528,4.823,4.772,8.266,4.772h1.121V278.027z"/>
	<path fill="#690000" d="M308.98,254.869l-0.999,12.896C303.649,274.84,296.298,280,284.895,280
		c-17.186-0.081-29.343-11.83-29.343-29.987c0-17.828,11.749-29.82,29.823-29.82c8.049,0,14.624,2.381,19.43,5.545l1.658,11.604
		h-0.681c-2.495-9.589-10.549-14.682-20.423-14.691c-14.44,0-23.644,10.929-23.644,27.277c0,16.513,9.366,27.275,23.18,27.609
		c11.666-0.036,21.534-5.844,23.404-22.667L308.98,254.869z"/>
	<path fill="#690000" d="M387.424,250.094c0,17.942-12.056,29.903-29.527,29.903s-29.532-11.961-29.532-29.903
		s12.062-29.904,29.532-29.904S387.424,232.152,387.424,250.094z M381.128,250.094c0-16.469-9.293-27.445-23.231-27.445
		c-13.943,0-23.231,10.976-23.231,27.445s9.288,27.445,23.231,27.445C371.834,277.539,381.128,266.562,381.128,250.094z"/>
	<path fill="#690000" d="M464.791,221.337l-0.017,0.823h-1.513c-2.752,0-4.984,2.185-5.074,4.912v42.445
		c0,5.294,0.754,10.482,0.754,10.482h-0.748l-44.804-47.793v40.908c0.084,2.727,2.322,4.915,5.068,4.915h1.518l0.011,0.82h-16.923
		l0.011-0.82h1.518c2.768,0,5.018-2.219,5.074-4.976V230.37c0-5.607-0.759-10.262-0.759-10.262h0.809l44.742,47.773v-40.743
		c-0.05-2.757-2.3-4.979-5.074-4.979h-1.513l-0.017-0.823h16.937V221.337z"/>
	<path fill="#690000" d="M517.303,221.256c3.55-0.017,8.356-0.846,9.891-1.493v10.329l-0.826-0.014v-1.462
		c0-2.635-2.076-4.781-4.683-4.895h-15.573v49.208c0.089,2.833,2.406,5.102,5.263,5.102h1.038l0.011,0.82H494.44l0.011-0.82h1.038
		c2.83,0,5.135-2.233,5.258-5.035v-49.274h-15.578c-2.607,0.114-4.683,2.261-4.683,4.895v1.462l-0.826,0.014v-10.329
		c1.535,0.647,6.341,1.476,9.891,1.493L517.303,221.256L517.303,221.256z"/>
	<path fill="#690000" d="M565.422,221.337c9.958,0,16.058,5.869,16.058,15.442c0,7.951-6.056,15.665-13.954,15.665
		c1.758,0.812,4.287,3.53,5.877,5.78c0,0,7.083,10.114,10.265,13.586c3.304,3.611,6.346,6.176,11.174,6.212v0.826h-4.51
		c-7.647,0-11.749-4.119-14.334-7.203c-0.932-1.116-10.192-14.585-10.823-15.377c-2.149-2.699-4.543-5.545-7.546-5.545v-0.759
		c0,0,1.87,0.042,4.342-0.028c4.264-0.114,10.493-1.13,12.821-8.529c0.363-1.153,0.575-3.12,0.525-4.92
		c-0.201-7.429-4.075-12.19-10.192-12.525c-4.186-0.229-9.159-0.025-10.226-0.064v48.965c0.05,2.863,2.383,5.169,5.263,5.169h1.038
		l0.011,0.82h-17.945l0.011-0.82h1.038c2.863,0,5.191-2.286,5.263-5.127v-45.582c-0.056-2.861-2.389-5.166-5.263-5.166h-1.044
		l-0.011-0.815L565.422,221.337z"/>
	<path fill="#690000" d="M652.523,272.853c1.658,3.659,4.7,5.174,7.217,5.174h0.687v0.82h-18.503v-0.815h0.726
		c2.121,0,4.32-1.867,3.12-5.157l-5.252-13.99h-22.131l-5.503,14.041c-1.155,3.257,1.033,5.107,3.142,5.107h0.72v0.815h-16.533
		v-0.82h0.737c2.501,0,5.537-1.515,7.195-5.169l18.631-44.206c0,0,3.042-6.656,3.042-8.462h0.742L652.523,272.853z M639.59,256.42
		l-9.902-26.368l-10.337,26.368H639.59z"/>
	<path fill="#690000" d="M724.559,254.869l-0.999,12.896C719.229,274.84,711.878,280,700.474,280
		c-17.18-0.081-29.343-11.83-29.343-29.987c0-17.828,11.749-29.82,29.823-29.82c8.049,0,14.624,2.381,19.43,5.545l1.658,11.604
		h-0.681c-2.495-9.589-10.549-14.682-20.423-14.691c-14.44,0-23.644,10.929-23.644,27.277c0,16.513,9.366,27.275,23.18,27.609
		c11.666-0.036,21.534-5.844,23.404-22.667L724.559,254.869z"/>
	<path fill="#690000" d="M771.759,221.256c3.55-0.017,8.356-0.846,9.891-1.493v10.329l-0.826-0.014v-1.462
		c0-2.635-2.076-4.781-4.683-4.895h-15.573v49.208c0.089,2.833,2.406,5.102,5.263,5.102h1.038l0.011,0.82h-17.984l0.011-0.82h1.038
		c2.83,0,5.135-2.233,5.258-5.035v-49.274h-15.578c-2.607,0.114-4.683,2.261-4.683,4.895v1.462l-0.826,0.014v-10.329
		c1.535,0.647,6.341,1.476,9.891,1.493L771.759,221.256L771.759,221.256z"/>
	<path fill="#690000" d="M853.184,221.337v0.823h-1.34c-2.305,0-4.192,1.616-4.337,3.879v32.488c0,12.882-8.858,21.47-22.142,21.47
		c-13.669,0-22.784-8.529-22.784-21.327v-32.44c-0.045-2.364-1.97-4.069-4.343-4.069h-1.34v-0.823h16.683v0.823h-1.334
		c-2.333,0-4.231,1.647-4.331,3.943v31.36c0,11.967,6.977,19.946,17.443,19.946c10.973,0,18.291-7.555,18.308-18.885v-32.41
		c-0.1-2.302-2.004-3.955-4.337-3.955h-1.34v-0.82L853.184,221.337z"/>
	<path fill="#690000" d="M897.044,254.62c3.288,3.034,4.13,6.698,4.13,10.016c0,9.087-5.939,15.363-15.383,15.363
		c-4.03,0-10.683-1.15-13.909-4.49c-0.614-2.537-0.301-7.77,0.949-11.453h0.72c-0.826,8.467,4.532,13.884,11.844,13.48
		c6-0.335,11.013-4.446,11.013-11.01c0-3.212-1.172-5.752-3.226-7.658l-15.735-14.615c-3.327-3.031-4.454-6.999-4.454-10.178
		c0-6.927,5.074-13.884,14.44-13.884c2.155,0,4.862,0.366,7.044,0.843h3.254v0.974v9.106h-0.787
		c0.017-5.255-4.125-8.462-9.243-8.462c-6.056,0-10.108,4.443-10.108,9.45c0,2.141,0.72,5.177,3.31,7.574L897.044,254.62z"/>
</g>
</svg>
