<?xml version="1.0" encoding="utf-8"?>
<!-- Generator: Adobe Illustrator 17.0.1, SVG Export Plug-In . SVG Version: 6.00 Build 0)  -->
<!DOCTYPE svg PUBLIC "-//W3C//DTD SVG 1.1//EN" "http://www.w3.org/Graphics/SVG/1.1/DTD/svg11.dtd">
<svg version="1.1" id="Capa_1" xmlns="http://www.w3.org/2000/svg" xmlns:xlink="http://www.w3.org/1999/xlink" x="0px" y="0px"
	 width="313px" height="31px" viewBox="0 0 313 31" enable-background="new 0 0 313 31" xml:space="preserve">
<g id="logo_6_">
	<path fill="#F4F5F0" d="M22.509,20.125l-1.667,4.619H8.991l0.004-0.287h0.361c1,0,1.812-0.801,1.832-1.798V6.816
		c-0.019-0.996-0.831-1.798-1.832-1.798H8.995L8.989,4.731h6.255L15.24,5.018h-0.361c-1,0-1.812,0.801-1.832,1.798v17.053h4.1
		c3.03,0,4.192-1.567,5.076-3.743H22.509z"/>
	<path fill="#F4F5F0" d="M39.804,24.744H27.951l0.006-0.287h0.361c1,0,1.812-0.801,1.832-1.798V6.652
		c-0.099-0.92-0.876-1.637-1.822-1.637h-0.361l-0.006-0.285h8.356c1.232-0.012,2.877-0.296,3.407-0.52v0.837v0.477V7.82
		l-0.287-0.004v-0.51c0-0.907-0.709-1.647-1.603-1.702h-5.827v8.839h4.831c0.765-0.015,1.383-0.639,1.383-1.408v-0.422l0.28-0.004
		v4.525l-0.28-0.003V16.71c0-0.759-0.6-1.378-1.354-1.408h-4.86v8.566h4.1c3.028,0,4.192-1.567,5.076-3.743h0.286L39.804,24.744z"/>
	<path fill="#F4F5F0" d="M65.283,24.458v0.286h-6.971v-0.286h0.359c0.775,0,1.468-0.935,1.012-1.742l-4.407-6.953l-4.396,6.934
		c-0.486,0.807,0.237,1.761,1.012,1.761h0.359v0.282h-6.484v-0.282h0.396c1.2,0,2.302-0.803,2.91-1.685l5.476-8.158L49.53,6.697
		c-0.608-0.883-1.682-1.682-2.883-1.682h-0.4V4.73h6.936v0.285h-0.359c-0.769,0-1.461,0.938-1.02,1.743l3.939,6.188l3.898-6.156
		c0.478-0.811-0.194-1.774-0.975-1.774h-0.359V4.729h6.447v0.287h-0.4c-1.2,0-2.275,0.798-2.883,1.68l-5.01,7.377l5.553,8.723
		c0.61,0.88,1.678,1.661,2.877,1.661H65.283z"/>
	<path fill="#F4F5F0" d="M101.068,16.399l-0.348,4.488c-1.507,2.462-4.066,4.258-8.034,4.258
		c-5.981-0.028-10.211-4.117-10.211-10.436c0-6.204,4.089-10.377,10.378-10.377c2.801,0,5.089,0.828,6.762,1.93l0.577,4.038h-0.237
		c-0.868-3.337-3.671-5.11-7.107-5.112c-5.025,0-8.228,3.803-8.228,9.493c0,5.747,3.259,9.492,8.067,9.608
		c4.06-0.013,7.494-2.034,8.145-7.888L101.068,16.399z"/>
	<path fill="#F4F5F0" d="M128.367,14.737c0,6.244-4.196,10.407-10.275,10.407s-10.277-4.163-10.277-10.407
		S112.011,4.33,118.091,4.33S128.367,8.493,128.367,14.737z M126.176,14.737c0-5.731-3.234-9.551-8.084-9.551
		c-4.852,0-8.084,3.82-8.084,9.551s3.232,9.551,8.084,9.551C122.941,24.288,126.176,20.468,126.176,14.737z"/>
	<path fill="#F4F5F0" d="M155.291,4.729l-0.006,0.287h-0.526c-0.958,0-1.735,0.76-1.766,1.709v14.771
		c0,1.842,0.262,3.648,0.262,3.648h-0.26L137.403,8.512v14.236c0.029,0.949,0.808,1.71,1.764,1.71h0.528l0.004,0.286h-5.889
		l0.004-0.286h0.528c0.963,0,1.746-0.772,1.766-1.732V7.873c0-1.951-0.264-3.571-0.264-3.571h0.282l15.571,16.625V6.749
		c-0.017-0.96-0.8-1.733-1.766-1.733h-0.526l-0.006-0.287H155.291z"/>
	<path fill="#F4F5F0" d="M173.565,4.701c1.235-0.006,2.908-0.294,3.442-0.52v3.594l-0.287-0.005V7.262
		c0-0.917-0.723-1.664-1.63-1.704h-5.419v17.124c0.031,0.986,0.837,1.775,1.832,1.775h0.361l0.004,0.286h-6.259l0.004-0.286h0.361
		c0.985,0,1.787-0.777,1.83-1.752V5.559h-5.421c-0.907,0.04-1.63,0.787-1.63,1.704v0.509l-0.287,0.005V4.182
		c0.534,0.225,2.207,0.514,3.442,0.52H173.565z"/>
	<path fill="#F4F5F0" d="M190.311,4.729c3.465,0,5.588,2.042,5.588,5.374c0,2.767-2.108,5.451-4.856,5.451
		c0.612,0.283,1.492,1.229,2.045,2.011c0,0,2.465,3.52,3.572,4.728c1.15,1.257,2.209,2.149,3.889,2.162v0.287h-1.569
		c-2.661,0-4.089-1.434-4.988-2.507c-0.324-0.388-3.547-5.076-3.766-5.351c-0.748-0.939-1.581-1.93-2.626-1.93v-0.264
		c0,0,0.651,0.015,1.511-0.01c1.484-0.04,3.652-0.393,4.462-2.968c0.126-0.401,0.2-1.086,0.183-1.712
		c-0.07-2.585-1.418-4.242-3.547-4.359c-1.457-0.08-3.188-0.009-3.559-0.022v17.04c0.017,0.996,0.829,1.799,1.832,1.799h0.361
		l0.004,0.286h-6.245l0.004-0.286h0.361c0.996,0,1.806-0.795,1.832-1.784V6.812c-0.019-0.995-0.831-1.798-1.832-1.798h-0.363
		l-0.004-0.284L190.311,4.729z"/>
	<path fill="#F4F5F0" d="M220.623,22.657c0.577,1.273,1.636,1.801,2.512,1.801h0.239v0.286h-6.439V24.46h0.253
		c0.738,0,1.503-0.65,1.086-1.795l-1.828-4.869h-7.702l-1.915,4.886c-0.402,1.133,0.359,1.777,1.094,1.777h0.251v0.284h-5.753
		v-0.286h0.256c0.87,0,1.927-0.527,2.504-1.799l6.484-15.384c0,0,1.059-2.316,1.059-2.945h0.258L220.623,22.657z M216.122,16.939
		l-3.446-9.176l-3.597,9.176H216.122z"/>
	<path fill="#F4F5F0" d="M245.692,16.399l-0.348,4.488c-1.507,2.462-4.066,4.258-8.034,4.258
		c-5.979-0.028-10.211-4.117-10.211-10.436c0-6.204,4.089-10.377,10.378-10.377c2.801,0,5.089,0.828,6.762,1.93l0.577,4.038h-0.237
		c-0.868-3.337-3.671-5.11-7.107-5.112c-5.025,0-8.228,3.803-8.228,9.493c0,5.747,3.259,9.492,8.067,9.608
		c4.06-0.013,7.494-2.034,8.145-7.888L245.692,16.399z"/>
	<path fill="#F4F5F0" d="M262.118,4.701c1.235-0.006,2.908-0.294,3.442-0.52v3.594l-0.287-0.005V7.262
		c0-0.917-0.723-1.664-1.63-1.704h-5.419v17.124c0.031,0.986,0.837,1.775,1.832,1.775h0.361l0.004,0.286h-6.259l0.004-0.286h0.361
		c0.985,0,1.787-0.777,1.83-1.752V5.559h-5.421c-0.907,0.04-1.63,0.787-1.63,1.704v0.509l-0.287,0.005V4.182
		c0.534,0.225,2.207,0.514,3.442,0.52H262.118z"/>
	<path fill="#F4F5F0" d="M290.454,4.729v0.287h-0.466c-0.802,0-1.459,0.562-1.509,1.35v11.306c0,4.483-3.083,7.472-7.706,7.472
		c-4.757,0-7.929-2.968-7.929-7.422V6.432c-0.016-0.823-0.686-1.416-1.511-1.416h-0.466V4.729h5.806v0.287h-0.464
		c-0.812,0-1.472,0.573-1.507,1.372v10.914c0,4.165,2.428,6.941,6.07,6.941c3.819,0,6.365-2.629,6.371-6.572V6.392
		c-0.035-0.801-0.697-1.376-1.509-1.376h-0.466V4.73L290.454,4.729z"/>
	<path fill="#F4F5F0" d="M305.717,16.312c1.144,1.056,1.437,2.331,1.437,3.486c0,3.162-2.067,5.347-5.353,5.347
		c-1.402,0-3.718-0.4-4.841-1.563c-0.214-0.883-0.105-2.704,0.33-3.986h0.251c-0.287,2.947,1.577,4.832,4.122,4.691
		c2.088-0.117,3.832-1.547,3.832-3.831c0-1.118-0.408-2.002-1.123-2.665l-5.476-5.086c-1.158-1.055-1.55-2.436-1.55-3.542
		c0-2.411,1.766-4.832,5.025-4.832c0.75,0,1.692,0.127,2.451,0.293h1.132v0.339v3.169h-0.274c0.006-1.829-1.435-2.945-3.217-2.945
		c-2.108,0-3.518,1.546-3.518,3.289c0,0.745,0.251,1.802,1.152,2.636L305.717,16.312z"/>
</g>
</svg>
