<svg xmlns="http://www.w3.org/2000/svg" width="863.109" height="69" viewBox="44.391 215.5 863.109 69"><path d="M83.239 265.577L78.45 278.85H44.397l.011-.823h1.038a5.264 5.264 0 0 0 5.263-5.166v-45.529a5.266 5.266 0 0 0-5.263-5.166h-1.038l-.017-.823h17.973l-.011.823h-1.038a5.264 5.264 0 0 0-5.263 5.166v49.001h11.783c8.707 0 12.045-4.502 14.585-10.756h.819zm49.699 13.273H98.879l.017-.823h1.038a5.264 5.264 0 0 0 5.263-5.166V226.86a5.271 5.271 0 0 0-5.236-4.705h-1.038l-.017-.818h24.012c3.539-.033 8.266-.851 9.79-1.493v10.373l-.826-.011v-1.465a4.901 4.901 0 0 0-4.605-4.889h-16.745v25.399h13.881a4.051 4.051 0 0 0 3.974-4.047v-1.211l.804-.011v13.002l-.804-.008v-1.211a4.051 4.051 0 0 0-3.89-4.047h-13.965v24.615h11.783c8.702 0 12.045-4.502 14.585-10.756h.82l-4.782 13.273zm73.214-.823v.82H186.12v-.82h1.033c2.227 0 4.22-2.688 2.908-5.007l-12.665-19.979-12.631 19.926c-1.395 2.319.681 5.06 2.908 5.06h1.033v.809h-18.631v-.809h1.139c3.449 0 6.614-2.308 8.361-4.842l15.735-23.443-14.423-22.751c-1.747-2.537-4.834-4.834-8.283-4.834h-1.15v-.818h19.932v.818h-1.033c-2.21 0-4.197 2.696-2.93 5.01l11.32 17.78 11.202-17.688c1.373-2.33-.558-5.099-2.802-5.099h-1.033v-.823h18.525v.823h-1.15c-3.449 0-6.536 2.294-8.283 4.828l-14.395 21.199 15.958 25.067c1.753 2.528 4.823 4.772 8.266 4.772h1.121v.001zm102.828-23.158l-.999 12.896C303.649 274.84 296.298 280 284.895 280c-17.186-.081-29.343-11.83-29.343-29.987 0-17.828 11.749-29.82 29.823-29.82 8.049 0 14.624 2.381 19.43 5.545l1.658 11.604h-.681c-2.495-9.589-10.549-14.682-20.423-14.691-14.44 0-23.644 10.929-23.644 27.277 0 16.513 9.366 27.275 23.18 27.609 11.666-.036 21.534-5.844 23.404-22.667l.681-.001zm78.444-4.775c0 17.942-12.056 29.903-29.527 29.903s-29.532-11.961-29.532-29.903 12.062-29.904 29.532-29.904 29.527 11.962 29.527 29.904zm-6.296 0c0-16.469-9.293-27.445-23.231-27.445-13.943 0-23.231 10.976-23.231 27.445s9.288 27.445 23.231 27.445c13.937 0 23.231-10.977 23.231-27.445zm83.663-28.757l-.017.823h-1.513a5.077 5.077 0 0 0-5.074 4.912v42.445c0 5.294.754 10.482.754 10.482h-.748l-44.804-47.793v40.908a5.074 5.074 0 0 0 5.068 4.915h1.518l.011.82h-16.923l.011-.82h1.518a5.078 5.078 0 0 0 5.074-4.976V230.37c0-5.607-.759-10.262-.759-10.262h.809l44.742 47.773v-40.743a5.073 5.073 0 0 0-5.074-4.979h-1.513l-.017-.823h16.937v.001zm52.512-.081c3.55-.017 8.356-.846 9.891-1.493v10.329l-.826-.014v-1.462a4.898 4.898 0 0 0-4.683-4.895h-15.573v49.208a5.264 5.264 0 0 0 5.263 5.102h1.038l.011.82H494.44l.011-.82h1.038a5.265 5.265 0 0 0 5.258-5.035v-49.274h-15.578a4.899 4.899 0 0 0-4.683 4.895v1.462l-.826.014v-10.329c1.535.647 6.341 1.476 9.891 1.493l27.752-.001zm48.119.081c9.958 0 16.058 5.869 16.058 15.442 0 7.951-6.056 15.665-13.954 15.665 1.758.812 4.287 3.53 5.877 5.78 0 0 7.083 10.114 10.265 13.586 3.304 3.611 6.346 6.176 11.174 6.212v.826h-4.51c-7.647 0-11.749-4.119-14.334-7.203-.932-1.116-10.192-14.585-10.823-15.377-2.149-2.699-4.543-5.545-7.546-5.545v-.759s1.87.042 4.342-.028c4.264-.114 10.493-1.13 12.821-8.529.363-1.153.575-3.12.525-4.92-.201-7.429-4.075-12.19-10.192-12.525-4.186-.229-9.159-.025-10.226-.064v48.965a5.26 5.26 0 0 0 5.263 5.169h1.038l.011.82h-17.945l.011-.82h1.038a5.265 5.265 0 0 0 5.263-5.127v-45.582a5.267 5.267 0 0 0-5.263-5.166h-1.044l-.011-.815 22.162-.005zm87.101 51.516c1.658 3.659 4.7 5.174 7.217 5.174h.687v.82h-18.503v-.815h.726c2.121 0 4.32-1.867 3.12-5.157l-5.252-13.99h-22.131l-5.503 14.041c-1.155 3.257 1.033 5.107 3.142 5.107h.72v.815h-16.533v-.82h.737c2.501 0 5.537-1.515 7.195-5.169l18.631-44.206s3.042-6.656 3.042-8.462h.742l21.963 52.662zM639.59 256.42l-9.902-26.368-10.337 26.368h20.239zm84.969-1.551l-.999 12.896C719.229 274.84 711.878 280 700.474 280c-17.18-.081-29.343-11.83-29.343-29.987 0-17.828 11.749-29.82 29.823-29.82 8.049 0 14.624 2.381 19.43 5.545l1.658 11.604h-.681c-2.495-9.589-10.549-14.682-20.423-14.691-14.44 0-23.644 10.929-23.644 27.277 0 16.513 9.366 27.275 23.18 27.609 11.666-.036 21.534-5.844 23.404-22.667l.681-.001zm47.2-33.613c3.55-.017 8.356-.846 9.891-1.493v10.329l-.826-.014v-1.462a4.898 4.898 0 0 0-4.683-4.895h-15.573v49.208a5.264 5.264 0 0 0 5.263 5.102h1.038l.011.82h-17.984l.011-.82h1.038a5.265 5.265 0 0 0 5.258-5.035v-49.274h-15.578a4.899 4.899 0 0 0-4.683 4.895v1.462l-.826.014v-10.329c1.535.647 6.341 1.476 9.891 1.493l27.752-.001zm81.425.081v.823h-1.34c-2.305 0-4.192 1.616-4.337 3.879v32.488c0 12.882-8.858 21.47-22.142 21.47-13.669 0-22.784-8.529-22.784-21.327v-32.44c-.045-2.364-1.97-4.069-4.343-4.069h-1.34v-.823h16.683v.823h-1.334c-2.333 0-4.231 1.647-4.331 3.943v31.36c0 11.967 6.977 19.946 17.443 19.946 10.973 0 18.291-7.555 18.308-18.885v-32.41c-.1-2.302-2.004-3.955-4.337-3.955h-1.34v-.82l15.194-.003zm43.86 33.283c3.288 3.034 4.13 6.698 4.13 10.016 0 9.087-5.939 15.363-15.383 15.363-4.03 0-10.683-1.15-13.909-4.49-.614-2.537-.301-7.77.949-11.453h.72c-.826 8.467 4.532 13.884 11.844 13.48 6-.335 11.013-4.446 11.013-11.01 0-3.212-1.172-5.752-3.226-7.658l-15.735-14.615c-3.327-3.031-4.454-6.999-4.454-10.178 0-6.927 5.074-13.884 14.44-13.884 2.155 0 4.862.366 7.044.843h3.254v10.08h-.787c.017-5.255-4.125-8.462-9.243-8.462-6.056 0-10.108 4.443-10.108 9.45 0 2.141.72 5.177 3.31 7.574l16.141 14.944z" fill="#690000"/></svg>