<svg xmlns="http://www.w3.org/2000/svg" width="313" height="31" viewBox="0 0 313 31"><path d="M22.509 20.125l-1.667 4.619H8.991l.004-.287h.361c1 0 1.812-.801 1.832-1.798V6.816a1.833 1.833 0 0 0-1.832-1.798h-.361l-.006-.287h6.255l-.004.287h-.361c-1 0-1.812.801-1.832 1.798v17.053h4.1c3.03 0 4.192-1.567 5.076-3.743h.286zm17.295 4.619H27.951l.006-.287h.361c1 0 1.812-.801 1.832-1.798V6.652a1.834 1.834 0 0 0-1.822-1.637h-.361l-.006-.285h8.356c1.232-.012 2.877-.296 3.407-.52v3.61l-.287-.004v-.51c0-.907-.709-1.647-1.603-1.702h-5.827v8.839h4.831a1.41 1.41 0 0 0 1.383-1.408v-.422l.28-.004v4.525l-.28-.003v-.421c0-.759-.6-1.378-1.354-1.408h-4.86v8.566h4.1c3.028 0 4.192-1.567 5.076-3.743h.286l-1.665 4.619zm25.479-.286v.286h-6.971v-.286h.359c.775 0 1.468-.935 1.012-1.742l-4.407-6.953-4.396 6.934c-.486.807.237 1.761 1.012 1.761h.359v.282h-6.484v-.282h.396c1.2 0 2.302-.803 2.91-1.685l5.476-8.158-5.019-7.918c-.608-.883-1.682-1.682-2.883-1.682h-.4V4.73h6.936v.285h-.359c-.769 0-1.461.938-1.02 1.743l3.939 6.188 3.898-6.156c.478-.811-.194-1.774-.975-1.774h-.359v-.287h6.447v.287h-.4c-1.2 0-2.275.798-2.883 1.68l-5.01 7.377 5.553 8.723c.61.88 1.678 1.661 2.877 1.661h.392zm35.785-8.059l-.348 4.488c-1.507 2.462-4.066 4.258-8.034 4.258-5.981-.028-10.211-4.117-10.211-10.436 0-6.204 4.089-10.377 10.378-10.377 2.801 0 5.089.828 6.762 1.93l.577 4.038h-.237c-.868-3.337-3.671-5.11-7.107-5.112-5.025 0-8.228 3.803-8.228 9.493 0 5.747 3.259 9.492 8.067 9.608 4.06-.013 7.494-2.034 8.145-7.888l.236-.002zm27.299-1.662c0 6.244-4.196 10.407-10.275 10.407s-10.277-4.163-10.277-10.407S112.011 4.33 118.091 4.33s10.276 4.163 10.276 10.407zm-2.191 0c0-5.731-3.234-9.551-8.084-9.551-4.852 0-8.084 3.82-8.084 9.551s3.232 9.551 8.084 9.551c4.849 0 8.084-3.82 8.084-9.551zm29.115-10.008l-.006.287h-.526c-.958 0-1.735.76-1.766 1.709v14.771c0 1.842.262 3.648.262 3.648h-.26L137.403 8.512v14.236c.029.949.808 1.71 1.764 1.71h.528l.004.286h-5.889l.004-.286h.528c.963 0 1.746-.772 1.766-1.732V7.873c0-1.951-.264-3.571-.264-3.571h.282l15.571 16.625V6.749a1.765 1.765 0 0 0-1.766-1.733h-.526l-.006-.287h5.892zm18.274-.028c1.235-.006 2.908-.294 3.442-.52v3.594l-.287-.005v-.508c0-.917-.723-1.664-1.63-1.704h-5.419v17.124a1.831 1.831 0 0 0 1.832 1.775h.361l.004.286h-6.259l.004-.286h.361c.985 0 1.787-.777 1.83-1.752V5.559h-5.421c-.907.04-1.63.787-1.63 1.704v.509l-.287.005V4.182c.534.225 2.207.514 3.442.52h9.657zm16.746.028c3.465 0 5.588 2.042 5.588 5.374 0 2.767-2.108 5.451-4.856 5.451.612.283 1.492 1.229 2.045 2.011 0 0 2.465 3.52 3.572 4.728 1.15 1.257 2.209 2.149 3.889 2.162v.287h-1.569c-2.661 0-4.089-1.434-4.988-2.507-.324-.388-3.547-5.076-3.766-5.351-.748-.939-1.581-1.93-2.626-1.93v-.264s.651.015 1.511-.01c1.484-.04 3.652-.393 4.462-2.968.126-.401.2-1.086.183-1.712-.07-2.585-1.418-4.242-3.547-4.359-1.457-.08-3.188-.009-3.559-.022v17.04a1.83 1.83 0 0 0 1.832 1.799h.361l.004.286h-6.245l.004-.286h.361c.996 0 1.806-.795 1.832-1.784V6.812a1.833 1.833 0 0 0-1.832-1.798h-.363l-.004-.284 7.711-.001zm30.312 17.928c.577 1.273 1.636 1.801 2.512 1.801h.239v.286h-6.439v-.284h.253c.738 0 1.503-.65 1.086-1.795l-1.828-4.869h-7.702l-1.915 4.886c-.402 1.133.359 1.777 1.094 1.777h.251v.284h-5.753v-.286h.256c.87 0 1.927-.527 2.504-1.799l6.484-15.384s1.059-2.316 1.059-2.945h.258l7.641 18.328zm-4.501-5.718l-3.446-9.176-3.597 9.176h7.043zm29.57-.54l-.348 4.488c-1.507 2.462-4.066 4.258-8.034 4.258-5.979-.028-10.211-4.117-10.211-10.436 0-6.204 4.089-10.377 10.378-10.377 2.801 0 5.089.828 6.762 1.93l.577 4.038h-.237c-.868-3.337-3.671-5.11-7.107-5.112-5.025 0-8.228 3.803-8.228 9.493 0 5.747 3.259 9.492 8.067 9.608 4.06-.013 7.494-2.034 8.145-7.888l.236-.002zm16.426-11.698c1.235-.006 2.908-.294 3.442-.52v3.594l-.287-.005v-.508c0-.917-.723-1.664-1.63-1.704h-5.419v17.124a1.831 1.831 0 0 0 1.832 1.775h.361l.004.286h-6.259l.004-.286h.361c.985 0 1.787-.777 1.83-1.752V5.559h-5.421c-.907.04-1.63.787-1.63 1.704v.509l-.287.005V4.182c.534.225 2.207.514 3.442.52h9.657zm28.336.028v.287h-.466c-.802 0-1.459.562-1.509 1.35v11.306c0 4.483-3.083 7.472-7.706 7.472-4.757 0-7.929-2.968-7.929-7.422V6.432c-.016-.823-.686-1.416-1.511-1.416h-.466v-.287h5.806v.287h-.464c-.812 0-1.472.573-1.507 1.372v10.914c0 4.165 2.428 6.941 6.07 6.941 3.819 0 6.365-2.629 6.371-6.572V6.392c-.035-.801-.697-1.376-1.509-1.376h-.466V4.73l5.286-.001zm15.263 11.583c1.144 1.056 1.437 2.331 1.437 3.486 0 3.162-2.067 5.347-5.353 5.347-1.402 0-3.718-.4-4.841-1.563-.214-.883-.105-2.704.33-3.986h.251c-.287 2.947 1.577 4.832 4.122 4.691 2.088-.117 3.832-1.547 3.832-3.831 0-1.118-.408-2.002-1.123-2.665l-5.476-5.086c-1.158-1.055-1.55-2.436-1.55-3.542 0-2.411 1.766-4.832 5.025-4.832.75 0 1.692.127 2.451.293h1.132v3.508h-.274c.006-1.829-1.435-2.945-3.217-2.945-2.108 0-3.518 1.546-3.518 3.289 0 .745.251 1.802 1.152 2.636l5.62 5.2z" fill="#F4F5F0"/></svg>